<?xml version="1.0" encoding="utf-8"?>
<!-- Generator: Adobe Illustrator 16.0.0, SVG Export Plug-In . SVG Version: 6.00 Build 0)  -->
<!DOCTYPE svg PUBLIC "-//W3C//DTD SVG 1.1//EN" "http://www.w3.org/Graphics/SVG/1.1/DTD/svg11.dtd">
<svg version="1.1" id="Layer_1" xmlns="http://www.w3.org/2000/svg" xmlns:xlink="http://www.w3.org/1999/xlink" x="0px" y="0px"
	 width="495.697px" height="201.489px" viewBox="13.121 8.888 495.697 201.489"
	 enable-background="new 13.121 8.888 495.697 201.489" xml:space="preserve">
<g id="Layer_x0020_1">
	<g id="_642188608">
		<path fill="#696B6D" d="M26.146,202.673h-11.52v-22.392h11.088v2.376h-8.496v7.488h7.848v2.376h-7.848v7.848h9v2.376
			L26.146,202.673z M41.337,186.69l-5.256,8.063l5.112,7.92h-2.88l-3.024-5.184c-0.216-0.288-0.432-0.72-0.647-1.225H34.57
			c-0.072,0.072-0.288,0.505-0.72,1.225l-3.097,5.184h-2.88l5.328-7.848l-5.111-8.136h2.88l3.023,5.472
			c0.216,0.432,0.432,0.792,0.648,1.224h0.071l3.888-6.695H41.337z M46.809,200.369h-0.072v9.647h-2.52V186.69h2.52v2.808h0.072
			c1.225-2.088,3.024-3.168,5.4-3.168c2.016,0,3.6,0.721,4.68,2.16c1.151,1.44,1.655,3.384,1.655,5.76
			c0,2.664-0.647,4.824-1.871,6.408c-1.296,1.584-3.024,2.447-5.185,2.447c-2.016,0-3.6-0.863-4.68-2.663V200.369z M46.737,193.89
			v2.231c0,1.296,0.433,2.448,1.225,3.384c0.864,0.937,1.872,1.368,3.168,1.368c1.512,0,2.664-0.576,3.527-1.8
			c0.864-1.225,1.296-2.88,1.296-4.968c0-1.8-0.432-3.168-1.224-4.176c-0.792-1.009-1.872-1.513-3.24-1.513
			c-1.439,0-2.592,0.504-3.527,1.584c-0.864,1.009-1.296,2.376-1.296,3.889H46.737z M73.737,202.673h-2.521v-2.52h-0.072
			c-1.079,1.943-2.663,2.88-4.823,2.88c-1.584,0-2.736-0.433-3.672-1.296c-0.864-0.864-1.296-1.944-1.296-3.384
			c0-3.024,1.728-4.752,5.111-5.256l4.68-0.648c0-2.736-1.079-4.104-3.239-4.104c-1.872,0-3.6,0.647-5.112,2.016v-2.592
			c1.513-1.008,3.313-1.512,5.256-1.512c3.672,0,5.472,2.016,5.472,5.976v10.439H73.737z M71.216,194.61l-3.744,0.504
			c-1.151,0.144-2.016,0.432-2.592,0.864c-0.575,0.432-0.863,1.151-0.863,2.231c0,0.792,0.288,1.44,0.792,1.944
			s1.296,0.72,2.159,0.72c1.225,0,2.232-0.432,3.097-1.368c0.792-0.864,1.224-2.016,1.224-3.384v-1.584L71.216,194.61z
			 M91.304,202.673h-2.521v-9.144c0-3.384-1.224-5.112-3.6-5.112c-1.224,0-2.304,0.504-3.096,1.44
			c-0.792,0.936-1.225,2.16-1.225,3.672v9.144h-2.52V186.69h2.52v2.664h0.072c1.152-2.016,2.88-3.024,5.112-3.024
			c1.728,0,3.023,0.576,3.888,1.729c0.936,1.151,1.368,2.735,1.368,4.896v9.792V202.673z M109.303,202.673h-2.52v-2.664h-0.072
			c-1.152,2.088-2.952,3.096-5.328,3.096c-1.943,0-3.527-0.72-4.68-2.159c-1.152-1.44-1.728-3.384-1.728-5.832
			c0-2.664,0.647-4.752,1.943-6.336s3.024-2.376,5.184-2.376c2.16,0,3.672,0.864,4.681,2.592h0.071v-9.863h2.521v23.687
			L109.303,202.673z M106.783,195.473v-2.375c0-1.297-0.433-2.376-1.225-3.313c-0.863-0.936-1.872-1.368-3.168-1.368
			c-1.512,0-2.735,0.576-3.6,1.729c-0.864,1.151-1.296,2.735-1.296,4.752c0,1.872,0.432,3.312,1.224,4.392
			c0.864,1.08,1.944,1.584,3.384,1.584c1.368,0,2.521-0.504,3.384-1.584c0.864-1.008,1.297-2.376,1.297-3.888V195.473z
			 M115.567,182.657c-0.432,0-0.864-0.144-1.152-0.504c-0.287-0.288-0.504-0.72-0.504-1.224s0.145-0.864,0.504-1.224
			c0.288-0.288,0.721-0.504,1.152-0.504s0.864,0.144,1.152,0.504c0.288,0.288,0.504,0.72,0.504,1.224
			c0,0.432-0.145,0.864-0.504,1.152c-0.288,0.359-0.721,0.504-1.152,0.504V182.657z M116.79,202.745h-2.52v-15.983h2.52V202.745z
			 M134.79,202.745h-2.521v-9.144c0-3.384-1.224-5.112-3.6-5.112c-1.224,0-2.304,0.504-3.096,1.44
			c-0.792,0.936-1.224,2.159-1.224,3.672v9.144h-2.521v-15.983h2.521v2.664h0.071c1.152-2.017,2.88-3.024,5.112-3.024
			c1.728,0,3.023,0.576,3.888,1.728c0.936,1.152,1.368,2.736,1.368,4.896v9.791V202.745z M152.789,201.449
			c0,5.903-2.735,8.783-8.208,8.783c-1.943,0-3.6-0.359-5.039-1.151v-2.593c1.728,1.009,3.455,1.513,5.039,1.513
			c3.816,0,5.76-2.088,5.76-6.264v-1.729h-0.071c-1.152,2.017-2.952,3.024-5.328,3.024c-1.944,0-3.527-0.721-4.68-2.16
			c-1.152-1.44-1.8-3.312-1.8-5.76c0-2.736,0.647-4.896,1.943-6.479s3.024-2.376,5.256-2.376c2.088,0,3.672,0.863,4.68,2.592h0.072
			v-2.232h2.521v14.688L152.789,201.449z M150.27,195.545v-2.376c0-1.296-0.433-2.376-1.225-3.239
			c-0.863-0.937-1.871-1.368-3.096-1.368c-1.512,0-2.735,0.576-3.6,1.728c-0.864,1.152-1.296,2.809-1.296,4.824
			c0,1.8,0.432,3.24,1.224,4.319c0.864,1.08,1.944,1.584,3.313,1.584c1.367,0,2.52-0.504,3.384-1.512
			C149.837,198.497,150.27,197.201,150.27,195.545z M183.029,202.745h-2.521v-10.224h-11.303v10.224h-2.521v-22.392h2.521v9.792
			h11.303v-9.792h2.521V202.745z M194.908,203.105c-2.305,0-4.104-0.72-5.473-2.231c-1.367-1.512-2.088-3.456-2.088-5.976
			c0-2.664,0.721-4.752,2.16-6.336c1.44-1.512,3.384-2.232,5.76-2.232c2.304,0,4.104,0.721,5.4,2.232
			c1.296,1.439,1.943,3.527,1.943,6.12c0,2.52-0.72,4.607-2.088,6.119S197.212,203.105,194.908,203.105z M195.124,188.49
			c-1.584,0-2.88,0.576-3.816,1.656c-0.936,1.151-1.367,2.664-1.367,4.68c0,1.872,0.504,3.384,1.439,4.464s2.232,1.656,3.815,1.656
			c1.584,0,2.88-0.504,3.744-1.584s1.296-2.592,1.296-4.608c0-2.016-0.432-3.527-1.296-4.607s-2.088-1.656-3.744-1.656H195.124z
			 M214.78,189.354c-0.433-0.36-1.08-0.504-1.872-0.504c-1.08,0-1.944,0.504-2.664,1.512s-1.08,2.448-1.08,4.248v8.136h-2.52
			v-15.983h2.52v3.312h0.072c0.36-1.152,0.864-2.016,1.656-2.664c0.72-0.647,1.512-0.936,2.447-0.936
			c0.648,0,1.152,0.072,1.513,0.216v2.664H214.78z M218.74,182.73c-0.433,0-0.864-0.144-1.152-0.504
			c-0.288-0.288-0.504-0.72-0.504-1.224s0.144-0.864,0.504-1.225c0.288-0.288,0.72-0.504,1.152-0.504
			c0.432,0,0.863,0.145,1.151,0.504c0.288,0.288,0.504,0.721,0.504,1.225c0,0.432-0.144,0.863-0.504,1.151
			c-0.288,0.36-0.72,0.504-1.151,0.504V182.73z M219.963,202.817h-2.52v-15.983h2.52V202.817z M235.874,187.554l-9.215,13.104h9.144
			v2.159h-12.815v-0.791l9.215-13.032h-8.352v-2.16h12.023V187.554z M245.594,203.177c-2.304,0-4.104-0.72-5.472-2.231
			c-1.368-1.513-2.088-3.456-2.088-5.977c0-2.663,0.72-4.751,2.16-6.335c1.439-1.513,3.384-2.232,5.76-2.232
			c2.304,0,4.104,0.72,5.399,2.232c1.296,1.439,1.944,3.527,1.944,6.119c0,2.521-0.72,4.608-2.088,6.12
			S247.899,203.177,245.594,203.177z M245.81,188.562c-1.583,0-2.88,0.576-3.815,1.656c-0.936,1.151-1.368,2.663-1.368,4.68
			c0,1.872,0.504,3.384,1.44,4.464c0.936,1.08,2.231,1.655,3.815,1.655s2.88-0.504,3.744-1.584c0.864-1.079,1.296-2.592,1.296-4.607
			s-0.432-3.528-1.296-4.607c-0.864-1.08-2.088-1.656-3.744-1.656H245.81z M270.289,202.817h-2.52v-9.144
			c0-3.384-1.225-5.111-3.6-5.111c-1.225,0-2.305,0.504-3.097,1.439c-0.792,0.937-1.224,2.16-1.224,3.672v9.144h-2.52v-15.983h2.52
			v2.664h0.072c1.151-2.016,2.88-3.023,5.111-3.023c1.729,0,3.024,0.576,3.888,1.728c0.937,1.152,1.368,2.736,1.368,4.896v9.791
			V202.817z M274.033,202.241v-2.736c1.368,1.08,2.88,1.584,4.464,1.584c2.16,0,3.24-0.792,3.24-2.231
			c0-0.433-0.072-0.792-0.288-1.08c-0.217-0.288-0.433-0.576-0.792-0.792c-0.288-0.216-0.721-0.433-1.152-0.648
			s-0.864-0.359-1.368-0.576c-0.72-0.288-1.296-0.575-1.8-0.863s-0.936-0.576-1.296-0.937c-0.36-0.359-0.647-0.792-0.792-1.224
			c-0.144-0.432-0.288-1.008-0.288-1.584c0-0.72,0.145-1.44,0.504-2.016c0.36-0.576,0.792-1.08,1.368-1.44
			c0.576-0.359,1.224-0.647,1.872-0.864c0.72-0.216,1.439-0.287,2.231-0.287c1.368,0,2.521,0.216,3.601,0.72v2.592
			c-1.152-0.792-2.448-1.152-3.96-1.152c-0.433,0-0.864,0.072-1.225,0.145c-0.359,0.144-0.72,0.288-0.936,0.432
			c-0.288,0.216-0.504,0.432-0.648,0.72c-0.144,0.288-0.216,0.576-0.216,0.937c0,0.432,0.072,0.792,0.216,1.08
			c0.145,0.288,0.36,0.504,0.648,0.72s0.648,0.432,1.008,0.576c0.433,0.144,0.864,0.359,1.368,0.576
			c0.72,0.287,1.296,0.575,1.872,0.863s1.008,0.648,1.368,0.937c0.359,0.359,0.647,0.792,0.863,1.224
			c0.216,0.504,0.288,1.008,0.288,1.656c0,0.792-0.144,1.512-0.504,2.088s-0.792,1.08-1.368,1.439
			c-0.575,0.36-1.224,0.648-1.943,0.864c-0.721,0.216-1.512,0.288-2.304,0.288c-1.584,0-2.952-0.288-4.177-0.937L274.033,202.241z
			 M289.081,203.177c-0.433,0-0.864-0.144-1.225-0.504c-0.359-0.36-0.504-0.792-0.504-1.224c0-0.504,0.145-0.864,0.504-1.225
			c0.36-0.359,0.72-0.504,1.225-0.504c0.504,0,0.863,0.145,1.224,0.504c0.359,0.36,0.504,0.792,0.504,1.225
			c0,0.504-0.145,0.863-0.504,1.224C289.945,203.033,289.585,203.177,289.081,203.177z M315.36,202.817h-11.52v-22.391h11.088v2.376
			h-8.496v7.487h7.848v2.376h-7.848v7.848h9v2.376L315.36,202.817z M332.135,202.817h-2.52v-9.144c0-3.384-1.224-5.111-3.6-5.111
			c-1.225,0-2.304,0.504-3.096,1.439c-0.792,0.937-1.225,2.16-1.225,3.672v9.144h-2.52v-15.983h2.52v2.664h0.072
			c1.152-2.016,2.88-3.023,5.111-3.023c1.729,0,3.024,0.576,3.889,1.728c0.936,1.152,1.367,2.736,1.367,4.896v9.791V202.817z
			 M344.951,189.426c-0.433-0.36-1.08-0.505-1.872-0.505c-1.08,0-1.944,0.505-2.664,1.513s-1.08,2.447-1.08,4.248v8.135h-2.52
			v-15.983h2.52v3.313h0.072c0.359-1.152,0.863-2.017,1.655-2.664c0.721-0.648,1.513-0.936,2.448-0.936
			c0.648,0,1.152,0.071,1.512,0.216v2.664H344.951z M348.91,182.802c-0.432,0-0.863-0.145-1.151-0.504
			c-0.288-0.288-0.504-0.721-0.504-1.225s0.144-0.863,0.504-1.224c0.288-0.288,0.72-0.504,1.151-0.504
			c0.433,0,0.864,0.144,1.152,0.504c0.288,0.288,0.504,0.72,0.504,1.224c0,0.433-0.144,0.864-0.504,1.152
			c-0.288,0.36-0.72,0.504-1.152,0.504V182.802z M350.135,202.889h-2.521v-15.983h2.521V202.889z M365.83,202.169
			c-1.224,0.72-2.592,1.08-4.248,1.08c-2.231,0-4.032-0.72-5.399-2.232c-1.368-1.512-2.017-3.384-2.017-5.76
			c0-2.664,0.721-4.752,2.232-6.336c1.439-1.583,3.456-2.375,5.903-2.375c1.368,0,2.592,0.287,3.601,0.792v2.592
			c-1.152-0.864-2.376-1.225-3.744-1.225c-1.584,0-2.88,0.576-3.888,1.8c-1.008,1.152-1.512,2.736-1.512,4.608
			s0.504,3.384,1.439,4.464s2.232,1.656,3.888,1.656c1.368,0,2.664-0.433,3.816-1.368v2.447L365.83,202.169z M382.533,202.889h-2.52
			v-9.216c0-3.312-1.224-5.039-3.6-5.039c-1.225,0-2.232,0.504-3.097,1.439c-0.863,0.937-1.224,2.232-1.224,3.744v9.071h-2.52
			v-23.687h2.52v10.295h0.072c1.224-2.016,2.88-3.023,5.111-3.023c3.528,0,5.256,2.16,5.256,6.479v9.863V202.889z M388.509,182.802
			c-0.432,0-0.863-0.145-1.151-0.504c-0.288-0.288-0.504-0.721-0.504-1.225s0.144-0.863,0.504-1.224
			c0.288-0.288,0.72-0.504,1.151-0.504c0.433,0,0.864,0.144,1.152,0.504c0.288,0.288,0.504,0.72,0.504,1.224
			c0,0.433-0.144,0.864-0.504,1.152c-0.288,0.36-0.72,0.504-1.152,0.504V182.802z M389.734,202.889h-2.521v-15.983h2.521V202.889z
			 M407.733,202.889h-2.52v-9.144c0-3.384-1.225-5.111-3.601-5.111c-1.224,0-2.304,0.504-3.096,1.439
			c-0.792,0.937-1.224,2.16-1.224,3.672v9.144h-2.52v-15.983h2.52v2.664h0.071c1.152-2.016,2.88-3.023,5.112-3.023
			c1.728,0,3.023,0.575,3.888,1.728c0.937,1.152,1.368,2.736,1.368,4.896v9.792V202.889z M425.732,201.593
			c0,5.904-2.735,8.784-8.207,8.784c-1.944,0-3.601-0.36-5.04-1.152v-2.592c1.728,1.008,3.456,1.512,5.04,1.512
			c3.815,0,5.76-2.088,5.76-6.264v-1.728h-0.072c-1.152,2.016-2.952,3.023-5.328,3.023c-1.943,0-3.527-0.72-4.68-2.16
			c-1.152-1.439-1.8-3.312-1.8-5.76c0-2.735,0.647-4.896,1.944-6.479c1.296-1.584,3.023-2.376,5.255-2.376
			c2.089,0,3.672,0.864,4.681,2.592h0.071v-2.231h2.521v14.688L425.732,201.593z M423.212,195.69v-2.376
			c0-1.296-0.432-2.376-1.224-3.24c-0.864-0.936-1.872-1.368-3.097-1.368c-1.512,0-2.735,0.576-3.6,1.729
			c-0.864,1.151-1.296,2.808-1.296,4.823c0,1.8,0.432,3.24,1.224,4.32c0.864,1.08,1.944,1.584,3.313,1.584s2.52-0.504,3.384-1.512
			C422.781,198.641,423.212,197.345,423.212,195.69z M450.931,202.889h-11.304v-22.391h2.521v20.015h8.783V202.889z
			 M455.251,182.802c-0.433,0-0.864-0.145-1.152-0.504c-0.288-0.288-0.504-0.721-0.504-1.225s0.145-0.863,0.504-1.224
			c0.288-0.288,0.72-0.504,1.152-0.504c0.432,0,0.863,0.144,1.151,0.504c0.288,0.288,0.504,0.72,0.504,1.224
			c0,0.433-0.144,0.864-0.504,1.152c-0.288,0.36-0.72,0.504-1.151,0.504V182.802z M456.475,202.889h-2.52v-15.983h2.52V202.889z
			 M473.754,186.906l-6.191,15.983h-2.448l-5.903-15.983h2.735l3.96,11.592c0.288,0.864,0.504,1.584,0.576,2.231h0.072
			c0.071-0.792,0.288-1.512,0.504-2.159l4.104-11.664H473.754z M488.946,195.545H477.93c0.072,1.8,0.504,3.168,1.368,4.104
			c0.864,1.008,2.088,1.439,3.672,1.439c1.728,0,3.384-0.576,4.824-1.8v2.376c-1.368,1.008-3.168,1.512-5.4,1.512
			c-2.159,0-3.96-0.72-5.184-2.16c-1.224-1.439-1.872-3.527-1.872-6.119c0-2.521,0.72-4.536,2.088-6.12s3.096-2.376,5.112-2.376
			c2.016,0,3.6,0.648,4.752,2.016c1.151,1.368,1.655,3.24,1.655,5.616v1.368V195.545z M486.426,193.385
			c0-1.512-0.36-2.663-1.008-3.455c-0.721-0.792-1.656-1.225-2.88-1.225c-1.152,0-2.16,0.433-3.024,1.296
			c-0.792,0.864-1.296,2.017-1.512,3.384H486.426z M491.825,202.313v-2.735c1.368,1.08,2.88,1.584,4.464,1.584
			c2.16,0,3.24-0.792,3.24-2.232c0-0.432-0.072-0.792-0.288-1.08c-0.216-0.287-0.432-0.575-0.792-0.792
			c-0.288-0.216-0.72-0.432-1.152-0.647c-0.432-0.216-0.863-0.36-1.367-0.576c-0.721-0.288-1.296-0.576-1.8-0.864
			c-0.505-0.287-0.937-0.575-1.296-0.936c-0.36-0.36-0.648-0.792-0.793-1.224c-0.144-0.433-0.287-1.009-0.287-1.584
			c0-0.721,0.144-1.44,0.504-2.017c0.359-0.575,0.792-1.08,1.367-1.439c0.576-0.36,1.225-0.648,1.872-0.864
			c0.721-0.216,1.44-0.288,2.232-0.288c1.368,0,2.52,0.216,3.6,0.721v2.592c-1.151-0.792-2.448-1.152-3.96-1.152
			c-0.432,0-0.863,0.072-1.224,0.144c-0.36,0.145-0.72,0.288-0.937,0.433c-0.287,0.216-0.504,0.432-0.647,0.72
			c-0.145,0.288-0.216,0.576-0.216,0.937c0,0.432,0.071,0.791,0.216,1.079c0.144,0.288,0.36,0.504,0.647,0.721
			c0.288,0.216,0.648,0.432,1.009,0.575c0.432,0.145,0.863,0.36,1.367,0.576c0.721,0.288,1.296,0.576,1.872,0.864
			s1.008,0.647,1.368,0.936c0.36,0.36,0.648,0.792,0.864,1.225c0.216,0.504,0.288,1.008,0.288,1.655
			c0,0.792-0.145,1.513-0.504,2.088c-0.36,0.576-0.792,1.08-1.368,1.44s-1.225,0.647-1.944,0.864
			c-0.72,0.216-1.512,0.288-2.304,0.288c-1.584,0-2.952-0.288-4.176-0.937L491.825,202.313z M506.873,203.249
			c-0.432,0-0.864-0.145-1.224-0.504c-0.36-0.36-0.504-0.792-0.504-1.225c0-0.504,0.144-0.863,0.504-1.224
			c0.359-0.36,0.72-0.504,1.224-0.504s0.864,0.144,1.224,0.504c0.36,0.36,0.504,0.792,0.504,1.224c0,0.505-0.144,0.864-0.504,1.225
			C507.738,203.105,507.377,203.249,506.873,203.249z"/>
		<path fill="#FF0000" d="M246.17,121.964c-5.903,3.096-13.247,4.68-22.031,4.68c-11.376,0-20.447-3.672-27.215-10.943
			c-6.84-7.344-10.224-16.92-10.224-28.8c0-12.743,3.815-23.11,11.52-30.959c7.704-7.848,17.424-11.808,29.231-11.808
			c7.56,0,13.823,1.08,18.791,3.313v9.936c-5.688-3.168-12.023-4.824-18.936-4.824c-9.144,0-16.56,3.024-22.247,9.216
			c-5.688,6.12-8.496,14.328-8.496,24.552c0,9.72,2.664,17.495,7.992,23.255c5.327,5.76,12.312,8.64,20.951,8.64
			c7.991,0,14.903-1.8,20.808-5.328v9.144L246.17,121.964z M318.024,125.276h-13.031l-30.815-36.503
			c-1.151-1.368-1.872-2.304-2.088-2.808h-0.216v39.311h-9.359V45.502h9.359v37.511h0.216c0.504-0.792,1.225-1.728,2.088-2.735
			l29.808-34.775h11.663l-34.271,38.303l36.646,41.543V125.276z M328.608,125.276V45.502h22.031c28.079,0,42.19,12.96,42.19,38.879
			c0,12.312-3.888,22.247-11.735,29.735c-7.776,7.487-18.288,11.231-31.319,11.231H328.68L328.608,125.276z M337.967,53.926v62.926
			h11.88c10.439,0,18.575-2.808,24.407-8.424c5.832-5.615,8.712-13.535,8.712-23.831c0-20.447-10.872-30.671-32.615-30.671h-12.456
			H337.967z"/>
		<g>
			<path fill="#696B6D" d="M430.772,29.951c0,10.079,1.152,15.767,7.056,23.255c13.464,16.991,40.535,15.623,52.343-2.16
				c-1.872,0.504-9.72,10.296-21.527,10.296c-8.28,0-15.12-0.72-22.104-6.12c-0.792-0.576-1.08-1.08-1.872-1.728l-3.815-3.888
				c-6.912-8.568-9.144-19.008-5.977-30.023c1.225-4.319,3.168-6.624,3.601-8.208C434.732,13.896,430.772,24.191,430.772,29.951z"/>
			<path fill="#696B6D" d="M433.364,149.467c-11.735,0-18.503,0-29.879-4.464c-3.312-1.296-5.615-2.52-8.711-4.104l-7.992-4.824
				c2.952,4.392,14.76,11.447,20.159,13.752c24.119,10.295,48.599,8.135,70.27-6.336c18.287-12.168,31.607-35.063,31.607-57.383
				c0-20.23-5.544-36.646-17.784-50.614c-2.735-3.096-7.632-7.991-10.871-10.151c0.504,1.8,1.728,2.52,2.952,3.744
				c1.439,1.439,1.8,2.088,3.096,3.6c1.728,2.088,4.031,5.544,5.399,7.992c11.52,21.022,13.176,42.838,4.392,64.51
				c-9.791,24.19-35.782,44.351-62.493,44.351L433.364,149.467z M386.709,135.572l-0.144,0.144
				C386.566,135.715,386.781,135.644,386.709,135.572z"/>
			<path fill="#696B6D" d="M410.252,16.488c0.072,0.072,0.145-0.216,0.145-0.145l0.072-0.071l-0.072,0.071
				C410.397,16.343,410.181,16.415,410.252,16.488z M396.933,51.046c0,20.52,8.136,34.847,23.399,46.511
				c12.168,9.287,29.807,12.312,45.502,8.279c11.736-2.952,22.464-10.296,29.735-19.583c1.152-1.44,1.368-1.08,1.8-2.808
				c-1.368,0.936-2.231,2.016-3.456,3.239c-3.096,3.168-8.711,6.84-12.6,9c-17.279,9.359-40.895,7.199-56.59-4.104
				c-19.295-13.896-28.151-38.951-20.447-61.99c1.872-5.76,5.904-12.96,5.976-13.104C403.629,20.951,396.933,39.599,396.933,51.046z
				"/>
		</g>
		<g>
			<path fill="#FEFEFE" d="M96.199,115.916l36.503,0.072v-14.76h-23.76l-0.144-20.592h23.759l0.145-14.399h-23.831l-0.145-14.111
				h23.615c0.792-2.736,0.432-11.376,0.216-14.688H96.127l-0.072,78.405L96.199,115.916z"/>
			<path fill="#FEFEFE" d="M61.641,52.198c7.56-0.648,14.399-0.072,14.471,7.991c0,8.28-7.127,8.568-14.543,7.92l0.144-15.911
				H61.641z M48.753,115.916l12.312,0.072c1.224-3.168,0.359-27.575,0.432-33.047c10.152-1.729,14.688,0.791,21.239-6.408
				c4.68-5.184,6.768-12.888,5.256-21.959c-1.296-7.776-5.832-13.68-12.671-15.624c-4.824-1.368-21.527-2.016-26.567-1.151v78.189
				V115.916z"/>
			<polygon fill="#FEFEFE" points="26.577,115.844 39.249,115.916 39.177,37.582 26.65,37.511 			"/>
			<path fill="#FEFEFE" d="M105.415,127.724l40.75,0.072V111.38h-26.423l-0.216-22.896h26.495l0.144-15.983h-26.566l-0.145-15.695
				h26.279c0.864-3.096,0.504-12.672,0.288-16.271h-40.535l-0.071,87.117V127.724z"/>
			<path fill="#FEFEFE" d="M66.897,56.95c8.424-0.721,16.055-0.072,16.055,8.855c0.072,9.144-7.919,9.504-16.199,8.783L66.897,56.95
				z M52.569,127.724l13.752,0.072c1.368-3.528,0.432-30.6,0.432-36.72c11.304-1.943,16.416,0.937,23.688-7.127
				c5.184-5.76,7.56-14.328,5.832-24.407c-1.44-8.568-6.48-15.191-14.112-17.352c-5.399-1.512-23.975-2.232-29.591-1.296v86.901
				V127.724z"/>
			<polygon fill="#FEFEFE" points="27.873,127.652 41.913,127.796 41.913,40.75 27.946,40.607 			"/>
			<path fill="#FF0000" d="M14.626,156.235V11.375h143.347h1.152v2.305v142.555h-1.152H14.626z M105.487,40.607l-0.071,87.117
				l40.75,0.072V111.38h-26.423l-0.216-22.896h26.495l0.144-15.983h-26.566l-0.145-15.695h26.279
				c0.864-3.096,0.504-12.672,0.288-16.271h-40.535V40.607z M52.569,40.823v86.901l13.752,0.072c1.368-3.528,0.432-30.6,0.432-36.72
				c11.304-1.943,16.416,0.937,23.688-7.127c5.184-5.76,7.56-14.328,5.832-24.407c-1.44-8.568-6.48-15.191-14.112-17.352
				c-5.399-1.512-23.975-2.232-29.591-1.296V40.823z M27.873,40.607l-0.071,87.045l14.039,0.145V40.75L27.873,40.607z"/>
			<path fill="#FF0000" d="M66.824,74.589c8.279,0.721,16.271,0.36,16.199-8.783c-0.072-8.928-7.703-9.576-16.056-8.855
				L66.824,74.589z"/>
		</g>
	</g>
</g>
</svg>
